<?xml version="1.0" encoding="UTF-8"?>
<!DOCTYPE svg PUBLIC "-//W3C//DTD SVG 1.1//EN" "http://www.w3.org/Graphics/SVG/1.1/DTD/svg11.dtd">
<svg xmlns="http://www.w3.org/2000/svg" version="1.1" width="1250px" height="1250px" style="shape-rendering:geometricPrecision; text-rendering:geometricPrecision; image-rendering:optimizeQuality; fill-rule:evenodd; clip-rule:evenodd" xmlns:xlink="http://www.w3.org/1999/xlink">
<g><path style="opacity:0.997" fill="#20a265" d="M 762.5,110.5 C 762.5,195.833 762.5,281.167 762.5,366.5C 734.167,366.5 705.833,366.5 677.5,366.5C 672.199,332.698 652.866,311.864 619.5,304C 517.834,303.5 416.167,303.333 314.5,303.5C 314.333,253.832 314.5,204.166 315,154.5C 319.378,130.456 333.544,115.956 357.5,111C 492.5,110.5 627.5,110.333 762.5,110.5 Z"/></g>
<g><path style="opacity:0.997" fill="#32c380" d="M 762.5,110.5 C 897.834,110.333 1033.17,110.5 1168.5,111C 1183.71,113.212 1195.54,120.712 1204,133.5C 1207.52,139.399 1209.86,145.732 1211,152.5C 1211.5,223.833 1211.67,295.166 1211.5,366.5C 1062.17,366.5 912.833,366.5 763.5,366.5C 763.167,366.5 762.833,366.5 762.5,366.5C 762.5,281.167 762.5,195.833 762.5,110.5 Z"/></g>
<g><path style="opacity:0.999" fill="#1d915b" d="M 314.5,303.5 C 416.167,303.333 517.834,303.5 619.5,304C 652.866,311.864 672.199,332.698 677.5,366.5C 670.5,366.5 663.5,366.5 656.5,366.5C 656.167,366.5 655.833,366.5 655.5,366.5C 650.721,341.058 635.388,327.058 609.5,324.5C 511.335,323.501 413.001,323.167 314.5,323.5C 314.5,316.833 314.5,310.167 314.5,303.5 Z"/></g>
<g><path style="opacity:0.998" fill="#107c41" d="M 314.5,323.5 C 413.001,323.167 511.335,323.501 609.5,324.5C 604.156,324.334 598.823,324.501 593.5,325C 616.455,330.455 630.455,344.621 635.5,367.5C 635.5,452.833 635.5,538.167 635.5,623.5C 635.828,709.208 635.495,794.874 634.5,880.5C 628.844,903.822 614.178,917.489 590.5,921.5C 498.332,921.167 406.332,921.501 314.5,922.5C 237.166,922.667 159.833,922.5 82.5,922C 58.3458,918.18 43.5125,904.346 38,880.5C 37.3333,708.833 37.3333,537.167 38,365.5C 43.745,340.756 59.245,326.923 84.5,324C 161.166,323.5 237.833,323.333 314.5,323.5 Z"/></g>
<g><path style="opacity:1" fill="#125e3b" d="M 609.5,324.5 C 635.388,327.058 650.721,341.058 655.5,366.5C 648.646,366.176 641.979,366.509 635.5,367.5C 630.455,344.621 616.455,330.455 593.5,325C 598.823,324.501 604.156,324.334 609.5,324.5 Z"/></g>
<g><path style="opacity:1" fill="#0a4626" d="M 655.5,366.5 C 655.833,366.5 656.167,366.5 656.5,366.5C 656.5,452.167 656.5,537.833 656.5,623.5C 649.5,623.5 642.5,623.5 635.5,623.5C 635.5,538.167 635.5,452.833 635.5,367.5C 641.979,366.509 648.646,366.176 655.5,366.5 Z"/></g>
<g><path style="opacity:1" fill="#0e6f3a" d="M 656.5,366.5 C 663.5,366.5 670.5,366.5 677.5,366.5C 677.5,366.833 677.5,367.167 677.5,367.5C 677.5,452.833 677.5,538.167 677.5,623.5C 670.5,623.5 663.5,623.5 656.5,623.5C 656.5,537.833 656.5,452.167 656.5,366.5 Z"/></g>
<g><path style="opacity:1" fill="#0f7b40" d="M 677.5,367.5 C 705.833,367.5 734.167,367.5 762.5,367.5C 762.5,452.833 762.5,538.167 762.5,623.5C 734.5,623.5 706.5,623.5 678.5,623.5C 678.167,623.5 677.833,623.5 677.5,623.5C 677.5,538.167 677.5,452.833 677.5,367.5 Z"/></g>
<g><path style="opacity:0.878" fill="#199155" d="M 677.5,367.5 C 677.5,367.167 677.5,366.833 677.5,366.5C 705.833,366.5 734.167,366.5 762.5,366.5C 762.833,366.5 763.167,366.5 763.5,366.5C 763.5,452.167 763.5,537.833 763.5,623.5C 763.167,623.5 762.833,623.5 762.5,623.5C 762.5,538.167 762.5,452.833 762.5,367.5C 734.167,367.5 705.833,367.5 677.5,367.5 Z"/></g>
<g><path style="opacity:0.999" fill="#21a366" d="M 763.5,366.5 C 912.833,366.5 1062.17,366.5 1211.5,366.5C 1211.5,452.167 1211.5,537.833 1211.5,623.5C 1062.17,623.5 912.833,623.5 763.5,623.5C 763.5,537.833 763.5,452.167 763.5,366.5 Z"/></g>
<g><path style="opacity:1" fill="#4c9d71" d="M 278.5,461.5 C 252.661,461.169 226.995,461.502 201.5,462.5C 200.957,462.44 200.624,462.107 200.5,461.5C 226.664,460.171 252.664,460.171 278.5,461.5 Z"/></g>
<g><path style="opacity:1" fill="#fefefe" d="M 278.5,461.5 C 299.685,502.537 320.352,543.87 340.5,585.5C 362.183,543.966 384.517,502.799 407.5,462C 431.167,461.333 454.833,461.333 478.5,462C 445.708,515.083 413.041,568.25 380.5,621.5C 413.464,675.782 446.797,729.782 480.5,783.5C 455.672,784.498 430.672,784.831 405.5,784.5C 382.332,742.168 359.666,699.502 337.5,656.5C 314.665,699.508 291.332,742.175 267.5,784.5C 242.328,784.831 217.328,784.498 192.5,783.5C 227.392,730.068 262.058,676.402 296.5,622.5C 264.822,569.139 233.155,515.806 201.5,462.5C 226.995,461.502 252.661,461.169 278.5,461.5 Z"/></g>
<g><path style="opacity:1" fill="#0d3520" d="M 635.5,623.5 C 642.5,623.5 649.5,623.5 656.5,623.5C 656.5,716.5 656.5,809.5 656.5,902.5C 651.199,922.636 638.533,935.803 618.5,942C 517.188,943.48 415.854,943.98 314.5,943.5C 314.5,936.5 314.5,929.5 314.5,922.5C 406.332,921.501 498.332,921.167 590.5,921.5C 499.002,922.499 407.335,922.833 315.5,922.5C 315.5,929.167 315.5,935.833 315.5,942.5C 410.864,942.986 506.197,942.486 601.5,941C 627.806,929.191 638.806,909.025 634.5,880.5C 635.495,794.874 635.828,709.208 635.5,623.5 Z"/></g>
<g><path style="opacity:1" fill="#165331" d="M 656.5,623.5 C 663.5,623.5 670.5,623.5 677.5,623.5C 677.833,623.5 678.167,623.5 678.5,623.5C 678.667,714.167 678.5,804.834 678,895.5C 677.031,914.426 669.865,930.426 656.5,943.5C 656.5,929.833 656.5,916.167 656.5,902.5C 656.5,809.5 656.5,716.5 656.5,623.5 Z"/></g>
<g><path style="opacity:0.998" fill="#175c37" d="M 678.5,623.5 C 706.5,623.5 734.5,623.5 762.5,623.5C 762.833,623.5 763.167,623.5 763.5,623.5C 763.5,708.5 763.5,793.5 763.5,878.5C 912.833,878.5 1062.17,878.5 1211.5,878.5C 1211.67,950.167 1211.5,1021.83 1211,1093.5C 1206.5,1116.67 1192.67,1130.5 1169.5,1135C 898.5,1135.67 627.5,1135.67 356.5,1135C 335.627,1130.46 322.127,1117.96 316,1097.5C 314.538,1060.2 314.038,1022.87 314.5,985.5C 414.834,985.667 515.167,985.5 615.5,985C 637.274,980.393 650.607,967.226 655.5,945.5C 655.833,944.833 656.167,944.167 656.5,943.5C 669.865,930.426 677.031,914.426 678,895.5C 678.5,804.834 678.667,714.167 678.5,623.5 Z"/></g>
<g><path style="opacity:0.999" fill="#107c40" d="M 763.5,623.5 C 912.833,623.5 1062.17,623.5 1211.5,623.5C 1211.5,708.5 1211.5,793.5 1211.5,878.5C 1062.17,878.5 912.833,878.5 763.5,878.5C 763.5,793.5 763.5,708.5 763.5,623.5 Z"/></g>
<g><path style="opacity:1" fill="#86bd9e" d="M 192.5,783.5 C 217.328,784.498 242.328,784.831 267.5,784.5C 242.33,785.829 216.997,785.829 191.5,784.5C 191.624,783.893 191.957,783.56 192.5,783.5 Z"/></g>
<g><path style="opacity:1" fill="#86bd9e" d="M 480.5,783.5 C 481.043,783.56 481.376,783.893 481.5,784.5C 456.003,785.829 430.67,785.829 405.5,784.5C 430.672,784.831 455.672,784.498 480.5,783.5 Z"/></g>
<g><path style="opacity:1" fill="#0d301d" d="M 634.5,880.5 C 638.806,909.025 627.806,929.191 601.5,941C 506.197,942.486 410.864,942.986 315.5,942.5C 315.5,935.833 315.5,929.167 315.5,922.5C 407.335,922.833 499.002,922.499 590.5,921.5C 614.178,917.489 628.844,903.822 634.5,880.5 Z"/></g>
<g><path style="opacity:0.999" fill="#114227" d="M 656.5,902.5 C 656.5,916.167 656.5,929.833 656.5,943.5C 656.167,944.167 655.833,944.833 655.5,945.5C 643.61,956.195 629.61,962.362 613.5,964C 513.834,964.5 414.167,964.667 314.5,964.5C 314.5,957.5 314.5,950.5 314.5,943.5C 415.854,943.98 517.188,943.48 618.5,942C 638.533,935.803 651.199,922.636 656.5,902.5 Z"/></g>
<g><path style="opacity:1" fill="#134a2c" d="M 655.5,945.5 C 650.607,967.226 637.274,980.393 615.5,985C 515.167,985.5 414.834,985.667 314.5,985.5C 314.5,978.5 314.5,971.5 314.5,964.5C 414.167,964.667 513.834,964.5 613.5,964C 629.61,962.362 643.61,956.195 655.5,945.5 Z"/></g>
</svg>
