<?xml version="1.0" encoding="UTF-8"?>
<!DOCTYPE svg PUBLIC "-//W3C//DTD SVG 1.1//EN" "http://www.w3.org/Graphics/SVG/1.1/DTD/svg11.dtd">
<svg xmlns="http://www.w3.org/2000/svg" version="1.1" width="1200px" height="1116px" style="shape-rendering:geometricPrecision; text-rendering:geometricPrecision; image-rendering:optimizeQuality; fill-rule:evenodd; clip-rule:evenodd" xmlns:xlink="http://www.w3.org/1999/xlink">
<g><path style="opacity:0.998" fill="#ed6c47" d="M 603.5,-0.5 C 616.167,-0.5 628.833,-0.5 641.5,-0.5C 641.5,75.8333 641.5,152.167 641.5,228.5C 636.371,226.179 631.038,224.345 625.5,223C 481.167,222.5 336.834,222.333 192.5,222.5C 267.079,122.844 364.412,55.3438 484.5,20C 523.64,9.25524 563.307,2.42191 603.5,-0.5 Z"/></g>
<g><path style="opacity:0.999" fill="#ff8f6a" d="M 641.5,-0.5 C 654.167,-0.5 666.833,-0.5 679.5,-0.5C 848.408,13.5227 984.908,86.856 1089,219.5C 1154.77,308.627 1191.6,408.627 1199.5,519.5C 1199.5,532.167 1199.5,544.833 1199.5,557.5C 1022.83,557.5 846.167,557.5 669.5,557.5C 669.667,460.499 669.5,363.499 669,266.5C 665.748,249.434 656.581,236.767 641.5,228.5C 641.5,152.167 641.5,75.8333 641.5,-0.5 Z"/></g>
<g><path style="opacity:1" fill="#d56140" d="M 192.5,222.5 C 336.834,222.333 481.167,222.5 625.5,223C 631.038,224.345 636.371,226.179 641.5,228.5C 641.5,250.167 641.5,271.833 641.5,293.5C 636.295,272.459 623.295,258.625 602.5,252C 591.215,250.644 579.881,250.144 568.5,250.5C 436.5,250.5 304.5,250.5 172.5,250.5C 178.688,240.777 185.355,231.443 192.5,222.5 Z"/></g>
<g><path style="opacity:1" fill="#e58060" d="M 641.5,228.5 C 656.581,236.767 665.748,249.434 669,266.5C 669.5,363.499 669.667,460.499 669.5,557.5C 660.167,557.5 650.833,557.5 641.5,557.5C 641.5,469.5 641.5,381.5 641.5,293.5C 641.5,271.833 641.5,250.167 641.5,228.5 Z"/></g>
<g><path style="opacity:0.999" fill="#c84926" d="M 172.5,250.5 C 304.5,250.5 436.5,250.5 568.5,250.5C 568.5,250.833 568.5,251.167 568.5,251.5C 557.5,251.5 546.5,251.5 535.5,251.5C 435.166,251.333 334.833,251.5 234.5,252C 156.466,297.684 78.1326,342.85 -0.5,387.5C -0.5,355.5 -0.5,323.5 -0.5,291.5C 5.31865,270.182 18.9853,256.682 40.5,251C 84.4987,250.5 128.499,250.333 172.5,250.5 Z"/></g>
<g><path style="opacity:1" fill="#c74623" d="M 535.5,251.5 C 458.167,296.5 380.833,341.5 303.5,386.5C 261.167,386.5 218.833,386.5 176.5,386.5C 176.5,410.833 176.5,435.167 176.5,459.5C 117.663,493.42 58.6627,527.086 -0.5,560.5C -0.5,502.833 -0.5,445.167 -0.5,387.5C 78.1326,342.85 156.466,297.684 234.5,252C 334.833,251.5 435.166,251.333 535.5,251.5 Z"/></g>
<g><path style="opacity:1" fill="#c64320" d="M 535.5,251.5 C 546.5,251.5 557.5,251.5 568.5,251.5C 592.536,255.702 607.369,269.702 613,293.5C 613.5,327.165 613.667,360.832 613.5,394.5C 613.167,394.5 612.833,394.5 612.5,394.5C 612.667,366.831 612.5,339.165 612,311.5C 546.524,349.148 481.358,387.148 416.5,425.5C 406.323,413.848 393.99,405.015 379.5,399C 364.478,392.495 348.812,388.661 332.5,387.5C 323.014,386.506 313.348,386.173 303.5,386.5C 380.833,341.5 458.167,296.5 535.5,251.5 Z"/></g>
<g><path style="opacity:1" fill="#883e29" d="M 568.5,251.5 C 568.5,251.167 568.5,250.833 568.5,250.5C 579.881,250.144 591.215,250.644 602.5,252C 623.295,258.625 636.295,272.459 641.5,293.5C 641.5,381.5 641.5,469.5 641.5,557.5C 632.167,557.5 622.833,557.5 613.5,557.5C 613.5,555.167 613.5,552.833 613.5,550.5C 613.5,498.5 613.5,446.5 613.5,394.5C 613.667,360.832 613.5,327.165 613,293.5C 607.369,269.702 592.536,255.702 568.5,251.5 Z"/></g>
<g><path style="opacity:1" fill="#c5401e" d="M 612.5,394.5 C 612.5,403.5 612.5,412.5 612.5,421.5C 552.969,456.098 493.302,490.431 433.5,524.5C 443.864,488.595 438.197,455.595 416.5,425.5C 481.358,387.148 546.524,349.148 612,311.5C 612.5,339.165 612.667,366.831 612.5,394.5 Z"/></g>
<g><path style="opacity:1" fill="#fefefe" d="M 332.5,387.5 C 348.812,388.661 364.478,392.495 379.5,399C 393.99,405.015 406.323,413.848 416.5,425.5C 438.197,455.595 443.864,488.595 433.5,524.5C 420.226,565.603 392.56,591.436 350.5,602C 342.574,603.765 334.574,605.099 326.5,606C 298.835,606.5 271.169,606.667 243.5,606.5C 242.501,646.33 242.168,686.33 242.5,726.5C 220.833,726.5 199.167,726.5 177.5,726.5C 177.5,613.5 177.5,500.5 177.5,387.5C 229.167,387.5 280.833,387.5 332.5,387.5 Z"/></g>
<g><path style="opacity:0.999" fill="#bf3a1a" d="M 612.5,394.5 C 612.833,394.5 613.167,394.5 613.5,394.5C 613.5,446.5 613.5,498.5 613.5,550.5C 612.505,561.988 612.172,573.655 612.5,585.5C 451.725,677.724 291.058,770.224 130.5,863C 144.496,863.5 158.496,863.667 172.5,863.5C 172.5,863.833 172.5,864.167 172.5,864.5C 128.832,864.667 85.1654,864.5 41.5,864C 26.0668,861.045 14.4001,852.879 6.5,839.5C 70.2406,801.768 134.241,764.434 198.5,727.5C 213.5,727.5 228.5,727.5 243.5,727.5C 243.5,718.833 243.5,710.167 243.5,701.5C 366.139,630.845 488.806,560.178 611.5,489.5C 612.5,466.843 612.833,444.176 612.5,421.5C 612.5,412.5 612.5,403.5 612.5,394.5 Z"/></g>
<g><path style="opacity:1" fill="#c23d1c" d="M 612.5,421.5 C 612.833,444.176 612.5,466.843 611.5,489.5C 488.806,560.178 366.139,630.845 243.5,701.5C 243.5,669.833 243.5,638.167 243.5,606.5C 271.169,606.667 298.835,606.5 326.5,606C 334.574,605.099 342.574,603.765 350.5,602C 392.56,591.436 420.226,565.603 433.5,524.5C 493.302,490.431 552.969,456.098 612.5,421.5 Z"/></g>
<g><path style="opacity:1" fill="#c64320" d="M 176.5,459.5 C 176.5,494.167 176.5,528.833 176.5,563.5C 117.946,597.029 59.4458,630.695 1,664.5C 0.831352,648.995 0.331352,633.661 -0.5,618.5C -0.5,599.167 -0.5,579.833 -0.5,560.5C 58.6627,527.086 117.663,493.42 176.5,459.5 Z"/></g>
<g><path style="opacity:1" fill="#c5411f" d="M 243.5,439.5 C 265.836,439.333 288.169,439.5 310.5,440C 353.396,442.902 372.229,465.735 367,508.5C 361.293,535.868 344.46,551.034 316.5,554C 292.169,554.5 267.836,554.667 243.5,554.5C 243.5,516.167 243.5,477.833 243.5,439.5 Z"/></g>
<g><path style="opacity:1" fill="#e5ab9d" d="M 303.5,386.5 C 313.348,386.173 323.014,386.506 332.5,387.5C 280.833,387.5 229.167,387.5 177.5,387.5C 177.5,500.5 177.5,613.5 177.5,726.5C 199.167,726.5 220.833,726.5 242.5,726.5C 242.168,686.33 242.501,646.33 243.5,606.5C 243.5,638.167 243.5,669.833 243.5,701.5C 243.5,710.167 243.5,718.833 243.5,727.5C 228.5,727.5 213.5,727.5 198.5,727.5C 191.167,727.5 183.833,727.5 176.5,727.5C 176.5,709.5 176.5,691.5 176.5,673.5C 176.5,636.833 176.5,600.167 176.5,563.5C 176.5,528.833 176.5,494.167 176.5,459.5C 176.5,435.167 176.5,410.833 176.5,386.5C 218.833,386.5 261.167,386.5 303.5,386.5 Z"/></g>
<g><path style="opacity:1" fill="#792f1b" d="M 613.5,557.5 C 622.833,557.5 632.167,557.5 641.5,557.5C 641.5,654.167 641.5,750.833 641.5,847.5C 636.225,872.607 620.892,887.44 595.5,892C 586.506,892.5 577.506,892.666 568.5,892.5C 592.267,887.569 607.1,873.236 613,849.5C 613.824,840.324 613.657,831.324 612.5,822.5C 613.476,793.532 613.809,764.532 613.5,735.5C 613.5,676.167 613.5,616.833 613.5,557.5 Z"/></g>
<g><path style="opacity:1" fill="#bd4a2b" d="M 641.5,557.5 C 650.833,557.5 660.167,557.5 669.5,557.5C 669.667,662.834 669.5,768.167 669,873.5C 666.337,893.651 655.837,907.985 637.5,916.5C 638.818,912.229 639.985,907.895 641,903.5C 641.5,884.836 641.667,866.17 641.5,847.5C 641.5,750.833 641.5,654.167 641.5,557.5 Z"/></g>
<g><path style="opacity:0.999" fill="#d3512f" d="M 669.5,557.5 C 846.167,557.5 1022.83,557.5 1199.5,557.5C 1199.5,570.167 1199.5,582.833 1199.5,595.5C 1186.22,760.102 1115.88,894.268 988.5,998C 897.334,1068.57 794.001,1107.73 678.5,1115.5C 653.5,1115.5 628.5,1115.5 603.5,1115.5C 478.08,1106.33 367.747,1061.16 272.5,980C 261.328,969.994 250.661,959.494 240.5,948.5C 358.5,948.667 476.5,948.5 594.5,948C 614.662,945.323 628.996,934.823 637.5,916.5C 655.837,907.985 666.337,893.651 669,873.5C 669.5,768.167 669.667,662.834 669.5,557.5 Z"/></g>
<g><path style="opacity:1" fill="#c4401e" d="M 176.5,563.5 C 176.5,600.167 176.5,636.833 176.5,673.5C 117.5,707.5 58.5,741.5 -0.5,775.5C -0.5,723.167 -0.5,670.833 -0.5,618.5C 0.331352,633.661 0.831352,648.995 1,664.5C 59.4458,630.695 117.946,597.029 176.5,563.5 Z"/></g>
<g><path style="opacity:1" fill="#bd3718" d="M 612.5,585.5 C 612.833,615.174 612.5,644.841 611.5,674.5C 502.274,737.274 393.274,800.274 284.5,863.5C 247.167,863.5 209.833,863.5 172.5,863.5C 158.496,863.667 144.496,863.5 130.5,863C 291.058,770.224 451.725,677.724 612.5,585.5 Z"/></g>
<g><path style="opacity:1" fill="#ba3316" d="M 613.5,550.5 C 613.5,552.833 613.5,555.167 613.5,557.5C 613.5,616.833 613.5,676.167 613.5,735.5C 612.825,748.902 612.158,762.402 611.5,776C 561.167,805 510.833,834 460.5,863C 401.834,863.5 343.168,863.667 284.5,863.5C 393.274,800.274 502.274,737.274 611.5,674.5C 612.5,644.841 612.833,615.174 612.5,585.5C 612.172,573.655 612.505,561.988 613.5,550.5 Z"/></g>
<g><path style="opacity:0.999" fill="#c23d1c" d="M 176.5,673.5 C 176.5,691.5 176.5,709.5 176.5,727.5C 183.833,727.5 191.167,727.5 198.5,727.5C 134.241,764.434 70.2406,801.768 6.5,839.5C 3.38622,834.486 1.05289,829.153 -0.5,823.5C -0.5,807.5 -0.5,791.5 -0.5,775.5C 58.5,741.5 117.5,707.5 176.5,673.5 Z"/></g>
<g><path style="opacity:1" fill="#b63014" d="M 613.5,735.5 C 613.809,764.532 613.476,793.532 612.5,822.5C 606.867,845.299 592.534,859.132 569.5,864C 437.167,864.5 304.834,864.667 172.5,864.5C 172.5,864.167 172.5,863.833 172.5,863.5C 209.833,863.5 247.167,863.5 284.5,863.5C 343.168,863.667 401.834,863.5 460.5,863C 510.833,834 561.167,805 611.5,776C 612.158,762.402 612.825,748.902 613.5,735.5 Z"/></g>
<g><path style="opacity:1" fill="#612616" d="M 612.5,822.5 C 613.657,831.324 613.824,840.324 613,849.5C 607.1,873.236 592.267,887.569 568.5,892.5C 443.167,892.5 317.833,892.5 192.5,892.5C 185.355,883.557 178.688,874.223 172.5,864.5C 304.834,864.667 437.167,864.5 569.5,864C 592.534,859.132 606.867,845.299 612.5,822.5 Z"/></g>
<g><path style="opacity:1" fill="#973b22" d="M 641.5,847.5 C 641.667,866.17 641.5,884.836 641,903.5C 639.985,907.895 638.818,912.229 637.5,916.5C 633.02,918.287 628.353,919.453 623.5,920C 487.167,920.5 350.834,920.667 214.5,920.5C 206.695,911.569 199.362,902.235 192.5,892.5C 317.833,892.5 443.167,892.5 568.5,892.5C 577.506,892.666 586.506,892.5 595.5,892C 620.892,887.44 636.225,872.607 641.5,847.5 Z"/></g>
<g><path style="opacity:1" fill="#a94226" d="M 637.5,916.5 C 628.996,934.823 614.662,945.323 594.5,948C 476.5,948.5 358.5,948.667 240.5,948.5C 230.759,940.095 222.093,930.762 214.5,920.5C 350.834,920.667 487.167,920.5 623.5,920C 628.353,919.453 633.02,918.287 637.5,916.5 Z"/></g>
</svg>
