<?xml version="1.0" encoding="UTF-8"?>
<!DOCTYPE svg PUBLIC "-//W3C//DTD SVG 1.1//EN" "http://www.w3.org/Graphics/SVG/1.1/DTD/svg11.dtd">
<svg xmlns="http://www.w3.org/2000/svg" version="1.1" width="1200px" height="1116px" style="shape-rendering:geometricPrecision; text-rendering:geometricPrecision; image-rendering:optimizeQuality; fill-rule:evenodd; clip-rule:evenodd" xmlns:xlink="http://www.w3.org/1999/xlink">
<g><path style="opacity:1" fill="#41a4ed" d="M 319.5,-0.5 C 599.167,-0.5 878.833,-0.5 1158.5,-0.5C 1179.83,5.5 1193.5,19.1667 1199.5,40.5C 1199.5,119.833 1199.5,199.167 1199.5,278.5C 1022.83,278.5 846.167,278.5 669.5,278.5C 670.008,257.681 661.675,241.514 644.5,230C 638.188,226.674 631.521,224.34 624.5,223C 509.167,222.5 393.834,222.333 278.5,222.5C 278.333,161.832 278.5,101.166 279,40.5C 284.682,18.9853 298.182,5.31865 319.5,-0.5 Z"/></g>
<g><path style="opacity:1" fill="#3a94d6" d="M 278.5,222.5 C 393.834,222.333 509.167,222.5 624.5,223C 631.521,224.34 638.188,226.674 644.5,230C 661.675,241.514 670.008,257.681 669.5,278.5C 658.167,278.5 646.833,278.5 635.5,278.5C 626.965,262.481 613.632,253.315 595.5,251C 586.506,250.5 577.506,250.334 568.5,250.5C 471.833,250.5 375.167,250.5 278.5,250.5C 278.5,241.167 278.5,231.833 278.5,222.5 Z"/></g>
<g><path style="opacity:0.998" fill="#2065c2" d="M 278.5,250.5 C 375.167,250.5 471.833,250.5 568.5,250.5C 568.5,250.833 568.5,251.167 568.5,251.5C 501.833,251.333 435.166,251.5 368.5,252C 288.67,297.747 209.003,343.747 129.5,390C 139.009,390.17 148.342,390.67 157.5,391.5C 136.167,391.5 114.833,391.5 93.5,391.5C 95.1481,397.426 96.4814,403.426 97.5,409.5C 95.6916,409.491 94.0249,409.991 92.5,411C 61.7716,429.362 30.7716,447.196 -0.5,464.5C -0.5,406.833 -0.5,349.167 -0.5,291.5C 5.43346,269.735 19.4335,256.235 41.5,251C 120.499,250.5 199.499,250.333 278.5,250.5 Z"/></g>
<g><path style="opacity:1" fill="#1d60bf" d="M 568.5,251.5 C 586.236,254.031 599.569,263.031 608.5,278.5C 613.023,291.071 614.689,304.071 613.5,317.5C 612.504,331.657 612.171,345.99 612.5,360.5C 579.259,379.073 546.259,398.073 513.5,417.5C 515.714,408.886 517.714,400.219 519.5,391.5C 498.497,391.333 477.497,391.5 456.5,392C 451.88,414.606 447.213,437.106 442.5,459.5C 442.103,458.475 441.437,458.308 440.5,459C 417.104,473.03 393.437,486.53 369.5,499.5C 360.519,463.91 351.686,428.243 343,392.5C 319.575,391.506 296.075,391.173 272.5,391.5C 254.881,468.55 237.047,545.55 219,622.5C 216.147,636.096 213.814,649.762 212,663.5C 210.408,644.283 207.408,625.283 203,606.5C 188.13,534.643 172.963,462.977 157.5,391.5C 148.342,390.67 139.009,390.17 129.5,390C 209.003,343.747 288.67,297.747 368.5,252C 435.166,251.5 501.833,251.333 568.5,251.5 Z"/></g>
<g><path style="opacity:1" fill="#255e8a" d="M 568.5,251.5 C 568.5,251.167 568.5,250.833 568.5,250.5C 577.506,250.334 586.506,250.5 595.5,251C 613.632,253.315 626.965,262.481 635.5,278.5C 626.5,278.5 617.5,278.5 608.5,278.5C 599.569,263.031 586.236,254.031 568.5,251.5 Z"/></g>
<g><path style="opacity:1" fill="#194779" d="M 608.5,278.5 C 617.5,278.5 626.5,278.5 635.5,278.5C 638.221,283.495 640.054,288.829 641,294.5C 641.5,382.166 641.667,469.833 641.5,557.5C 632.167,557.5 622.833,557.5 613.5,557.5C 613.5,528.833 613.5,500.167 613.5,471.5C 613.5,420.167 613.5,368.833 613.5,317.5C 614.689,304.071 613.023,291.071 608.5,278.5 Z"/></g>
<g><path style="opacity:1" fill="#276fbd" d="M 635.5,278.5 C 646.833,278.5 658.167,278.5 669.5,278.5C 669.5,371.5 669.5,464.5 669.5,557.5C 660.167,557.5 650.833,557.5 641.5,557.5C 641.667,469.833 641.5,382.166 641,294.5C 640.054,288.829 638.221,283.495 635.5,278.5 Z"/></g>
<g><path style="opacity:1" fill="#2b7cd3" d="M 669.5,278.5 C 846.167,278.5 1022.83,278.5 1199.5,278.5C 1199.5,371.5 1199.5,464.5 1199.5,557.5C 1022.83,557.5 846.167,557.5 669.5,557.5C 669.5,464.5 669.5,371.5 669.5,278.5 Z"/></g>
<g><path style="opacity:1" fill="#1a5cbd" d="M 612.5,360.5 C 612.833,388.841 612.5,417.175 611.5,445.5C 571.772,469.029 531.772,492.029 491.5,514.5C 498.422,482.068 505.756,449.735 513.5,417.5C 546.259,398.073 579.259,379.073 612.5,360.5 Z"/></g>
<g><path style="opacity:1" fill="#fdfefe" d="M 157.5,391.5 C 172.963,462.977 188.13,534.643 203,606.5C 207.408,625.283 210.408,644.283 212,663.5C 213.814,649.762 216.147,636.096 219,622.5C 237.047,545.55 254.881,468.55 272.5,391.5C 296.075,391.173 319.575,391.506 343,392.5C 351.686,428.243 360.519,463.91 369.5,499.5C 379.837,543.182 390.337,586.848 401,630.5C 402.734,641.137 404.234,651.804 405.5,662.5C 407.257,648.113 409.424,633.78 412,619.5C 422.621,566.229 432.788,512.896 442.5,459.5C 447.213,437.106 451.88,414.606 456.5,392C 477.497,391.5 498.497,391.333 519.5,391.5C 517.714,400.219 515.714,408.886 513.5,417.5C 505.756,449.735 498.422,482.068 491.5,514.5C 486.408,531.871 482.074,549.538 478.5,567.5C 467.033,614.368 456.033,661.368 445.5,708.5C 444.209,713.394 442.876,718.394 441.5,723.5C 416.824,723.833 392.158,723.5 367.5,722.5C 361.479,696.416 355.146,670.416 348.5,644.5C 345.61,630.61 342.277,616.943 338.5,603.5C 332.865,578.293 326.865,553.293 320.5,528.5C 314.478,504.725 309.478,480.725 305.5,456.5C 302.57,470.746 300.07,485.079 298,499.5C 294.596,515.206 291.096,530.872 287.5,546.5C 279.582,579.754 271.915,613.087 264.5,646.5C 260.404,663.745 256.737,681.078 253.5,698.5C 250.744,706.528 248.744,714.862 247.5,723.5C 222.167,723.5 196.833,723.5 171.5,723.5C 170.797,717.355 169.464,711.355 167.5,705.5C 161.499,680.161 155.499,654.828 149.5,629.5C 132.165,556.161 114.832,482.828 97.5,409.5C 96.4814,403.426 95.1481,397.426 93.5,391.5C 114.833,391.5 136.167,391.5 157.5,391.5 Z"/></g>
<g><path style="opacity:1" fill="#1d60bf" d="M 97.5,409.5 C 114.832,482.828 132.165,556.161 149.5,629.5C 148.778,629.082 148.278,628.416 148,627.5C 98.718,656.557 49.218,685.224 -0.5,713.5C -0.5,630.5 -0.5,547.5 -0.5,464.5C 30.7716,447.196 61.7716,429.362 92.5,411C 94.0249,409.991 95.6916,409.491 97.5,409.5 Z"/></g>
<g><path style="opacity:1" fill="#1858ba" d="M 613.5,317.5 C 613.5,368.833 613.5,420.167 613.5,471.5C 612.817,478.234 612.15,485.068 611.5,492C 567.491,517.867 523.157,543.033 478.5,567.5C 482.074,549.538 486.408,531.871 491.5,514.5C 531.772,492.029 571.772,469.029 611.5,445.5C 612.5,417.175 612.833,388.841 612.5,360.5C 612.171,345.99 612.504,331.657 613.5,317.5 Z"/></g>
<g><path style="opacity:1" fill="#1a5bbc" d="M 442.5,459.5 C 432.788,512.896 422.621,566.229 412,619.5C 409.424,633.78 407.257,648.113 405.5,662.5C 404.234,651.804 402.734,641.137 401,630.5C 390.337,586.848 379.837,543.182 369.5,499.5C 393.437,486.53 417.104,473.03 440.5,459C 441.437,458.308 442.103,458.475 442.5,459.5 Z"/></g>
<g><path style="opacity:1" fill="#2461c0" d="M 320.5,528.5 C 309.59,534.786 298.59,540.786 287.5,546.5C 291.096,530.872 294.596,515.206 298,499.5C 300.07,485.079 302.57,470.746 305.5,456.5C 309.478,480.725 314.478,504.725 320.5,528.5 Z"/></g>
<g><path style="opacity:1" fill="#1754b7" d="M 613.5,471.5 C 613.5,500.167 613.5,528.833 613.5,557.5C 613.5,562.167 613.5,566.833 613.5,571.5C 612.833,585.006 612.167,598.673 611.5,612.5C 556.139,644.512 500.806,676.512 445.5,708.5C 456.033,661.368 467.033,614.368 478.5,567.5C 523.157,543.033 567.491,517.867 611.5,492C 612.15,485.068 612.817,478.234 613.5,471.5 Z"/></g>
<g><path style="opacity:1" fill="#1c5cbd" d="M 320.5,528.5 C 326.865,553.293 332.865,578.293 338.5,603.5C 313.506,617.328 288.839,631.662 264.5,646.5C 271.915,613.087 279.582,579.754 287.5,546.5C 298.59,540.786 309.59,534.786 320.5,528.5 Z"/></g>
<g><path style="opacity:1" fill="#0e346d" d="M 613.5,557.5 C 622.833,557.5 632.167,557.5 641.5,557.5C 641.5,650.5 641.5,743.5 641.5,836.5C 632.167,836.5 622.833,836.5 613.5,836.5C 611.833,836.5 610.167,836.5 608.5,836.5C 610.293,831.283 611.793,825.95 613,820.5C 613.5,772.501 613.667,724.501 613.5,676.5C 613.5,641.5 613.5,606.5 613.5,571.5C 613.5,566.833 613.5,562.167 613.5,557.5 Z"/></g>
<g><path style="opacity:1" fill="#1551aa" d="M 641.5,557.5 C 650.833,557.5 660.167,557.5 669.5,557.5C 669.5,650.5 669.5,743.5 669.5,836.5C 660.167,836.5 650.833,836.5 641.5,836.5C 641.5,743.5 641.5,650.5 641.5,557.5 Z"/></g>
<g><path style="opacity:1" fill="#1759bc" d="M 669.5,557.5 C 846.167,557.5 1022.83,557.5 1199.5,557.5C 1199.5,650.5 1199.5,743.5 1199.5,836.5C 1022.83,836.5 846.167,836.5 669.5,836.5C 669.5,743.5 669.5,650.5 669.5,557.5 Z"/></g>
<g><path style="opacity:1" fill="#144eb2" d="M 613.5,571.5 C 613.5,606.5 613.5,641.5 613.5,676.5C 612.833,702.003 612.167,727.67 611.5,753.5C 548.038,789.8 484.704,826.3 421.5,863C 373.665,863.167 325.998,863.667 278.5,864.5C 244.5,864.5 210.5,864.5 176.5,864.5C 256.273,817.774 336.273,771.274 416.5,725C 425.01,724.829 433.343,724.329 441.5,723.5C 442.876,718.394 444.209,713.394 445.5,708.5C 500.806,676.512 556.139,644.512 611.5,612.5C 612.167,598.673 612.833,585.006 613.5,571.5 Z"/></g>
<g><path style="opacity:1" fill="#1959ba" d="M 338.5,603.5 C 342.277,616.943 345.61,630.61 348.5,644.5C 316.698,662.235 285.032,680.235 253.5,698.5C 256.737,681.078 260.404,663.745 264.5,646.5C 288.839,631.662 313.506,617.328 338.5,603.5 Z"/></g>
<g><path style="opacity:1" fill="#195bbd" d="M 149.5,629.5 C 155.499,654.828 161.499,680.161 167.5,705.5C 166.732,704.737 166.232,703.737 166,702.5C 110.69,734.903 55.1902,766.903 -0.5,798.5C -0.5,770.167 -0.5,741.833 -0.5,713.5C 49.218,685.224 98.718,656.557 148,627.5C 148.278,628.416 148.778,629.082 149.5,629.5 Z"/></g>
<g><path style="opacity:0.999" fill="#1754b7" d="M 348.5,644.5 C 355.146,670.416 361.479,696.416 367.5,722.5C 392.158,723.5 416.824,723.833 441.5,723.5C 433.343,724.329 425.01,724.829 416.5,725C 336.273,771.274 256.273,817.774 176.5,864.5C 131.499,864.667 86.4988,864.5 41.5,864C 26.4581,861.114 14.7915,853.28 6.5,840.5C 73.7715,802.529 140.771,764.029 207.5,725C 221.006,724.831 234.34,724.331 247.5,723.5C 248.744,714.862 250.744,706.528 253.5,698.5C 285.032,680.235 316.698,662.235 348.5,644.5 Z"/></g>
<g><path style="opacity:0.999" fill="#1858ba" d="M 167.5,705.5 C 169.464,711.355 170.797,717.355 171.5,723.5C 196.833,723.5 222.167,723.5 247.5,723.5C 234.34,724.331 221.006,724.831 207.5,725C 140.771,764.029 73.7715,802.529 6.5,840.5C 3.55915,834.993 1.22582,829.326 -0.5,823.5C -0.5,815.167 -0.5,806.833 -0.5,798.5C 55.1902,766.903 110.69,734.903 166,702.5C 166.232,703.737 166.732,704.737 167.5,705.5 Z"/></g>
<g><path style="opacity:1" fill="#1248ad" d="M 613.5,676.5 C 613.667,724.501 613.5,772.501 613,820.5C 611.793,825.95 610.293,831.283 608.5,836.5C 599.508,851.841 586.174,861.007 568.5,864C 471.834,864.5 375.167,864.667 278.5,864.5C 325.998,863.667 373.665,863.167 421.5,863C 484.704,826.3 548.038,789.8 611.5,753.5C 612.167,727.67 612.833,702.003 613.5,676.5 Z"/></g>
<g><path style="opacity:1" fill="#071e42" d="M 608.5,836.5 C 610.167,836.5 611.833,836.5 613.5,836.5C 613.461,864.027 600.461,882.193 574.5,891C 475.834,891.5 377.167,891.667 278.5,891.5C 278.5,882.5 278.5,873.5 278.5,864.5C 375.167,864.667 471.834,864.5 568.5,864C 586.174,861.007 599.508,851.841 608.5,836.5 Z"/></g>
<g><path style="opacity:1" fill="#082452" d="M 613.5,836.5 C 622.833,836.5 632.167,836.5 641.5,836.5C 641.5,840.167 641.5,843.833 641.5,847.5C 636.461,871.706 621.795,886.54 597.5,892C 491.167,892.5 384.834,892.667 278.5,892.5C 278.5,892.167 278.5,891.833 278.5,891.5C 377.167,891.667 475.834,891.5 574.5,891C 600.461,882.193 613.461,864.027 613.5,836.5 Z"/></g>
<g><path style="opacity:1" fill="#0e3982" d="M 641.5,836.5 C 650.833,836.5 660.167,836.5 669.5,836.5C 669.667,848.838 669.5,861.171 669,873.5C 666.333,893.655 655.833,907.988 637.5,916.5C 638.818,912.229 639.985,907.895 641,903.5C 641.5,884.836 641.667,866.17 641.5,847.5C 641.5,843.833 641.5,840.167 641.5,836.5 Z"/></g>
<g><path style="opacity:0.999" fill="#103e90" d="M 669.5,836.5 C 846.167,836.5 1022.83,836.5 1199.5,836.5C 1199.5,915.833 1199.5,995.167 1199.5,1074.5C 1193.5,1095.83 1179.83,1109.5 1158.5,1115.5C 878.833,1115.5 599.167,1115.5 319.5,1115.5C 298.182,1109.68 284.682,1096.01 279,1074.5C 278.5,1032.5 278.333,990.501 278.5,948.5C 384.167,948.667 489.834,948.5 595.5,948C 615.101,944.891 629.101,934.391 637.5,916.5C 655.833,907.988 666.333,893.655 669,873.5C 669.5,861.171 669.667,848.838 669.5,836.5 Z"/></g>
<g><path style="opacity:1" fill="#0b2e68" d="M 641.5,847.5 C 641.667,866.17 641.5,884.836 641,903.5C 639.985,907.895 638.818,912.229 637.5,916.5C 633.065,918.275 628.399,919.442 623.5,920C 508.5,920.5 393.5,920.667 278.5,920.5C 278.5,911.167 278.5,901.833 278.5,892.5C 384.834,892.667 491.167,892.5 597.5,892C 621.795,886.54 636.461,871.706 641.5,847.5 Z"/></g>
<g><path style="opacity:1" fill="#0d3274" d="M 637.5,916.5 C 629.101,934.391 615.101,944.891 595.5,948C 489.834,948.5 384.167,948.667 278.5,948.5C 278.5,939.167 278.5,929.833 278.5,920.5C 393.5,920.667 508.5,920.5 623.5,920C 628.399,919.442 633.065,918.275 637.5,916.5 Z"/></g>
</svg>
